<svg xmlns="http://www.w3.org/2000/svg" viewBox="0 0 336 208" width="336" height="208" shape-rendering="crispEdges">
<style>
  /* 整体上下浮动 */
  .axo-group { animation: bob 3.2s ease-in-out infinite; }
  @keyframes bob { 0%,100% { transform: translateY(0); } 50% { transform: translateY(-6px); } }

  /* 眨眼: 极短时间缩到 0 高度 */
  .eyes { animation: blink 5.4s steps(1,end) infinite; transform-origin: center; }
  @keyframes blink {
    0%, 92%   { opacity: 1; }
    93%, 96%  { opacity: 0; }
    97%, 100% { opacity: 1; }
  }

  /* 星光闪烁 */
  .tw { animation: twinkle 2.6s ease-in-out infinite; }
  @keyframes twinkle { 0%,100% { opacity: 0.25; } 50% { opacity: 1; } }

  /* 气泡上浮 */
  .bub { animation: rise 5s linear infinite; }
  @keyframes rise {
    0%   { transform: translateY(0);      opacity: 0; }
    12%  { opacity: 0.85; }
    100% { transform: translateY(-184px); opacity: 0; }
  }

  /* 外鳃轻微摆动 */
  .gills { animation: sway 2.4s ease-in-out infinite; transform-origin: 168px 56px; }
  @keyframes sway { 0%,100% { transform: rotate(-1.6deg); } 50% { transform: rotate(1.6deg); } }
</style>

<rect x="0" y="0" width="336" height="208" fill="#0b1026"/>
<rect x="176" y="200" width="8" height="8" fill="#8fb8ff" class="tw" style="animation-delay:0.23s"/>
<rect x="288" y="184" width="8" height="8" fill="#ffffff" class="tw" style="animation-delay:0.69s"/>
<rect x="24" y="200" width="8" height="8" fill="#8fb8ff" class="tw" style="animation-delay:0.92s"/>
<rect x="328" y="8" width="8" height="8" fill="#ffffff" class="tw" style="animation-delay:1.38s"/>
<rect x="128" y="0" width="8" height="8" fill="#8fb8ff" class="tw" style="animation-delay:1.61s"/>
<rect x="248" y="8" width="8" height="8" fill="#8fb8ff" class="tw" style="animation-delay:2.30s"/>
<rect x="64" y="184" width="8" height="8" fill="#ffffff" class="tw" style="animation-delay:2.76s"/>
<rect x="16" y="160" width="8" height="8" fill="#8fb8ff" class="tw" style="animation-delay:2.99s"/>
<rect x="48" y="0" width="8" height="8" fill="#8fb8ff" class="tw" style="animation-delay:3.22s"/>
<rect x="8" y="64" width="8" height="8" fill="#ffffff" class="tw" style="animation-delay:4.14s"/>
<rect x="256" y="192" width="16" height="16" fill="#4fd6e0" fill-opacity="0.75" class="bub" style="animation-delay:0.00s;animation-duration:4.0s"/>
<rect x="176" y="192" width="8" height="8" fill="#4fd6e0" fill-opacity="0.75" class="bub" style="animation-delay:0.70s;animation-duration:5.0s"/>
<rect x="88" y="192" width="16" height="16" fill="#4fd6e0" fill-opacity="0.75" class="bub" style="animation-delay:1.40s;animation-duration:6.0s"/>
<rect x="152" y="192" width="8" height="8" fill="#4fd6e0" fill-opacity="0.75" class="bub" style="animation-delay:2.10s;animation-duration:4.0s"/>
<rect x="184" y="192" width="16" height="16" fill="#4fd6e0" fill-opacity="0.75" class="bub" style="animation-delay:2.80s;animation-duration:5.0s"/>
<rect x="144" y="192" width="8" height="8" fill="#4fd6e0" fill-opacity="0.75" class="bub" style="animation-delay:3.50s;animation-duration:6.0s"/>
<rect x="112" y="192" width="16" height="16" fill="#4fd6e0" fill-opacity="0.75" class="bub" style="animation-delay:4.20s;animation-duration:4.0s"/>

<g class="axo-group">
  <g class="gills"><rect x="40" y="24" width="8" height="8" fill="#ffffff" class="axo"/><rect x="288" y="24" width="8" height="8" fill="#ffffff" class="axo"/><rect x="48" y="32" width="8" height="8" fill="#b02a5e" class="axo"/><rect x="56" y="32" width="8" height="8" fill="#e0457d" class="axo"/><rect x="64" y="32" width="8" height="8" fill="#e0457d" class="axo"/><rect x="88" y="32" width="8" height="8" fill="#e0457d" class="axo"/><rect x="96" y="32" width="8" height="8" fill="#e0457d" class="axo"/><rect x="104" y="32" width="8" height="8" fill="#e0457d" class="axo"/><rect x="120" y="32" width="8" height="8" fill="#e0457d" class="axo"/><rect x="128" y="32" width="8" height="8" fill="#e0457d" class="axo"/><rect x="136" y="32" width="8" height="8" fill="#e0457d" class="axo"/><rect x="192" y="32" width="8" height="8" fill="#e0457d" class="axo"/><rect x="200" y="32" width="8" height="8" fill="#e0457d" class="axo"/><rect x="208" y="32" width="8" height="8" fill="#e0457d" class="axo"/><rect x="224" y="32" width="8" height="8" fill="#e0457d" class="axo"/><rect x="232" y="32" width="8" height="8" fill="#e0457d" class="axo"/><rect x="240" y="32" width="8" height="8" fill="#e0457d" class="axo"/><rect x="264" y="32" width="8" height="8" fill="#e0457d" class="axo"/><rect x="272" y="32" width="8" height="8" fill="#e0457d" class="axo"/><rect x="280" y="32" width="8" height="8" fill="#b02a5e" class="axo"/><rect x="56" y="40" width="8" height="8" fill="#e0457d" class="axo"/><rect x="64" y="40" width="8" height="8" fill="#e0457d" class="axo"/><rect x="96" y="40" width="8" height="8" fill="#e0457d" class="axo"/><rect x="104" y="40" width="8" height="8" fill="#e0457d" class="axo"/><rect x="128" y="40" width="8" height="8" fill="#e0457d" class="axo"/><rect x="136" y="40" width="8" height="8" fill="#e0457d" class="axo"/><rect x="192" y="40" width="8" height="8" fill="#e0457d" class="axo"/><rect x="200" y="40" width="8" height="8" fill="#e0457d" class="axo"/><rect x="224" y="40" width="8" height="8" fill="#e0457d" class="axo"/><rect x="232" y="40" width="8" height="8" fill="#e0457d" class="axo"/><rect x="264" y="40" width="8" height="8" fill="#e0457d" class="axo"/><rect x="272" y="40" width="8" height="8" fill="#e0457d" class="axo"/><rect x="64" y="48" width="8" height="8" fill="#e0457d" class="axo"/><rect x="72" y="48" width="8" height="8" fill="#e0457d" class="axo"/><rect x="104" y="48" width="8" height="8" fill="#e0457d" class="axo"/><rect x="112" y="48" width="8" height="8" fill="#e0457d" class="axo"/><rect x="136" y="48" width="8" height="8" fill="#e0457d" class="axo"/><rect x="144" y="48" width="8" height="8" fill="#e0457d" class="axo"/><rect x="184" y="48" width="8" height="8" fill="#e0457d" class="axo"/><rect x="192" y="48" width="8" height="8" fill="#e0457d" class="axo"/><rect x="216" y="48" width="8" height="8" fill="#e0457d" class="axo"/><rect x="224" y="48" width="8" height="8" fill="#e0457d" class="axo"/><rect x="256" y="48" width="8" height="8" fill="#e0457d" class="axo"/><rect x="264" y="48" width="8" height="8" fill="#e0457d" class="axo"/><rect x="72" y="56" width="8" height="8" fill="#e0457d" class="axo"/><rect x="80" y="56" width="8" height="8" fill="#e0457d" class="axo"/><rect x="88" y="56" width="8" height="8" fill="#e0457d" class="axo"/><rect x="96" y="56" width="8" height="8" fill="#e0457d" class="axo"/><rect x="104" y="56" width="8" height="8" fill="#e0457d" class="axo"/><rect x="112" y="56" width="8" height="8" fill="#ffd9e6" class="axo"/><rect x="120" y="56" width="8" height="8" fill="#ffd9e6" class="axo"/><rect x="128" y="56" width="8" height="8" fill="#ffd9e6" class="axo"/><rect x="136" y="56" width="8" height="8" fill="#ffd9e6" class="axo"/><rect x="144" y="56" width="8" height="8" fill="#ffd9e6" class="axo"/><rect x="152" y="56" width="8" height="8" fill="#ffd9e6" class="axo"/><rect x="160" y="56" width="8" height="8" fill="#ffd9e6" class="axo"/><rect x="168" y="56" width="8" height="8" fill="#ffd9e6" class="axo"/><rect x="176" y="56" width="8" height="8" fill="#ffd9e6" class="axo"/><rect x="184" y="56" width="8" height="8" fill="#ffd9e6" class="axo"/><rect x="192" y="56" width="8" height="8" fill="#ffd9e6" class="axo"/><rect x="200" y="56" width="8" height="8" fill="#ffd9e6" class="axo"/><rect x="208" y="56" width="8" height="8" fill="#ffd9e6" class="axo"/><rect x="216" y="56" width="8" height="8" fill="#ffd9e6" class="axo"/><rect x="224" y="56" width="8" height="8" fill="#e0457d" class="axo"/><rect x="232" y="56" width="8" height="8" fill="#e0457d" class="axo"/><rect x="240" y="56" width="8" height="8" fill="#e0457d" class="axo"/><rect x="248" y="56" width="8" height="8" fill="#e0457d" class="axo"/><rect x="256" y="56" width="8" height="8" fill="#e0457d" class="axo"/><rect x="88" y="64" width="8" height="8" fill="#e0457d" class="axo"/><rect x="96" y="64" width="8" height="8" fill="#ffd9e6" class="axo"/><rect x="104" y="64" width="8" height="8" fill="#ffd9e6" class="axo"/><rect x="112" y="64" width="8" height="8" fill="#ffd9e6" class="axo"/><rect x="120" y="64" width="8" height="8" fill="#ffd9e6" class="axo"/><rect x="128" y="64" width="8" height="8" fill="#ffd9e6" class="axo"/><rect x="136" y="64" width="8" height="8" fill="#ffd9e6" class="axo"/><rect x="144" y="64" width="8" height="8" fill="#ffd9e6" class="axo"/><rect x="152" y="64" width="8" height="8" fill="#ffd9e6" class="axo"/><rect x="160" y="64" width="8" height="8" fill="#ffd9e6" class="axo"/><rect x="168" y="64" width="8" height="8" fill="#ffd9e6" class="axo"/><rect x="176" y="64" width="8" height="8" fill="#ffd9e6" class="axo"/><rect x="184" y="64" width="8" height="8" fill="#ffd9e6" class="axo"/><rect x="192" y="64" width="8" height="8" fill="#ffd9e6" class="axo"/><rect x="200" y="64" width="8" height="8" fill="#ffd9e6" class="axo"/><rect x="208" y="64" width="8" height="8" fill="#ffd9e6" class="axo"/><rect x="216" y="64" width="8" height="8" fill="#ffd9e6" class="axo"/><rect x="224" y="64" width="8" height="8" fill="#ffd9e6" class="axo"/><rect x="232" y="64" width="8" height="8" fill="#ffd9e6" class="axo"/><rect x="240" y="64" width="8" height="8" fill="#e0457d" class="axo"/><rect x="88" y="72" width="8" height="8" fill="#e0457d" class="axo"/><rect x="96" y="72" width="8" height="8" fill="#ffd9e6" class="axo"/><rect x="104" y="72" width="8" height="8" fill="#ffd9e6" class="axo"/><rect x="112" y="72" width="8" height="8" fill="#ffd9e6" class="axo"/><rect x="120" y="72" width="8" height="8" fill="#ffd9e6" class="axo"/><rect x="128" y="72" width="8" height="8" fill="#ffd9e6" class="axo"/><rect x="136" y="72" width="8" height="8" fill="#ffd9e6" class="axo"/><rect x="144" y="72" width="8" height="8" fill="#ffd9e6" class="axo"/><rect x="152" y="72" width="8" height="8" fill="#ffd9e6" class="axo"/><rect x="160" y="72" width="8" height="8" fill="#ffd9e6" class="axo"/><rect x="168" y="72" width="8" height="8" fill="#ffd9e6" class="axo"/><rect x="176" y="72" width="8" height="8" fill="#ffd9e6" class="axo"/><rect x="184" y="72" width="8" height="8" fill="#ffd9e6" class="axo"/><rect x="192" y="72" width="8" height="8" fill="#ffd9e6" class="axo"/><rect x="200" y="72" width="8" height="8" fill="#ffd9e6" class="axo"/><rect x="208" y="72" width="8" height="8" fill="#ffd9e6" class="axo"/><rect x="216" y="72" width="8" height="8" fill="#ffd9e6" class="axo"/><rect x="224" y="72" width="8" height="8" fill="#ffd9e6" class="axo"/><rect x="232" y="72" width="8" height="8" fill="#ffd9e6" class="axo"/><rect x="240" y="72" width="8" height="8" fill="#e0457d" class="axo"/><rect x="88" y="80" width="8" height="8" fill="#e0457d" class="axo"/><rect x="96" y="80" width="8" height="8" fill="#ffd9e6" class="axo"/><rect x="104" y="80" width="8" height="8" fill="#ffd9e6" class="axo"/><rect x="112" y="80" width="8" height="8" fill="#ffffff" class="axo"/><rect x="120" y="80" width="8" height="8" fill="#241d30" class="axo"/><rect x="128" y="80" width="8" height="8" fill="#ffd9e6" class="axo"/><rect x="136" y="80" width="8" height="8" fill="#ffd9e6" class="axo"/><rect x="144" y="80" width="8" height="8" fill="#ffd9e6" class="axo"/><rect x="152" y="80" width="8" height="8" fill="#ffd9e6" class="axo"/><rect x="160" y="80" width="8" height="8" fill="#ffd9e6" class="axo"/><rect x="168" y="80" width="8" height="8" fill="#ffd9e6" class="axo"/><rect x="176" y="80" width="8" height="8" fill="#ffd9e6" class="axo"/><rect x="184" y="80" width="8" height="8" fill="#ffd9e6" class="axo"/><rect x="192" y="80" width="8" height="8" fill="#ffd9e6" class="axo"/><rect x="200" y="80" width="8" height="8" fill="#ffd9e6" class="axo"/><rect x="208" y="80" width="8" height="8" fill="#241d30" class="axo"/><rect x="216" y="80" width="8" height="8" fill="#ffffff" class="axo"/><rect x="224" y="80" width="8" height="8" fill="#ffd9e6" class="axo"/><rect x="232" y="80" width="8" height="8" fill="#ffd9e6" class="axo"/><rect x="240" y="80" width="8" height="8" fill="#e0457d" class="axo"/><rect x="88" y="88" width="8" height="8" fill="#e0457d" class="axo"/><rect x="96" y="88" width="8" height="8" fill="#ffd9e6" class="axo"/><rect x="104" y="88" width="8" height="8" fill="#ffd9e6" class="axo"/><rect x="112" y="88" width="8" height="8" fill="#241d30" class="axo"/><rect x="120" y="88" width="8" height="8" fill="#241d30" class="axo"/><rect x="128" y="88" width="8" height="8" fill="#f7a8c4" class="axo"/><rect x="136" y="88" width="8" height="8" fill="#f7a8c4" class="axo"/><rect x="144" y="88" width="8" height="8" fill="#f7a8c4" class="axo"/><rect x="152" y="88" width="8" height="8" fill="#f7a8c4" class="axo"/><rect x="160" y="88" width="8" height="8" fill="#f7a8c4" class="axo"/><rect x="168" y="88" width="8" height="8" fill="#f7a8c4" class="axo"/><rect x="176" y="88" width="8" height="8" fill="#f7a8c4" class="axo"/><rect x="184" y="88" width="8" height="8" fill="#f7a8c4" class="axo"/><rect x="192" y="88" width="8" height="8" fill="#f7a8c4" class="axo"/><rect x="200" y="88" width="8" height="8" fill="#f7a8c4" class="axo"/><rect x="208" y="88" width="8" height="8" fill="#241d30" class="axo"/><rect x="216" y="88" width="8" height="8" fill="#241d30" class="axo"/><rect x="224" y="88" width="8" height="8" fill="#ffd9e6" class="axo"/><rect x="232" y="88" width="8" height="8" fill="#ffd9e6" class="axo"/><rect x="240" y="88" width="8" height="8" fill="#e0457d" class="axo"/><rect x="88" y="96" width="8" height="8" fill="#e0457d" class="axo"/><rect x="96" y="96" width="8" height="8" fill="#f7a8c4" class="axo"/><rect x="104" y="96" width="8" height="8" fill="#f7a8c4" class="axo"/><rect x="112" y="96" width="8" height="8" fill="#f7a8c4" class="axo"/><rect x="120" y="96" width="8" height="8" fill="#f7a8c4" class="axo"/><rect x="128" y="96" width="8" height="8" fill="#b02a5e" class="axo"/><rect x="136" y="96" width="8" height="8" fill="#ffd9e6" class="axo"/><rect x="144" y="96" width="8" height="8" fill="#ffd9e6" class="axo"/><rect x="152" y="96" width="8" height="8" fill="#ffd9e6" class="axo"/><rect x="160" y="96" width="8" height="8" fill="#ffd9e6" class="axo"/><rect x="168" y="96" width="8" height="8" fill="#ffd9e6" class="axo"/><rect x="176" y="96" width="8" height="8" fill="#ffd9e6" class="axo"/><rect x="184" y="96" width="8" height="8" fill="#ffd9e6" class="axo"/><rect x="192" y="96" width="8" height="8" fill="#ffd9e6" class="axo"/><rect x="200" y="96" width="8" height="8" fill="#b02a5e" class="axo"/><rect x="208" y="96" width="8" height="8" fill="#f7a8c4" class="axo"/><rect x="216" y="96" width="8" height="8" fill="#f7a8c4" class="axo"/><rect x="224" y="96" width="8" height="8" fill="#f7a8c4" class="axo"/><rect x="232" y="96" width="8" height="8" fill="#f7a8c4" class="axo"/><rect x="240" y="96" width="8" height="8" fill="#e0457d" class="axo"/><rect x="88" y="104" width="8" height="8" fill="#e0457d" class="axo"/><rect x="96" y="104" width="8" height="8" fill="#f7a8c4" class="axo"/><rect x="104" y="104" width="8" height="8" fill="#ff9dbb" class="axo"/><rect x="112" y="104" width="8" height="8" fill="#ff9dbb" class="axo"/><rect x="120" y="104" width="8" height="8" fill="#f7a8c4" class="axo"/><rect x="128" y="104" width="8" height="8" fill="#f7a8c4" class="axo"/><rect x="136" y="104" width="8" height="8" fill="#f7a8c4" class="axo"/><rect x="144" y="104" width="8" height="8" fill="#f7a8c4" class="axo"/><rect x="152" y="104" width="8" height="8" fill="#f7a8c4" class="axo"/><rect x="160" y="104" width="8" height="8" fill="#f7a8c4" class="axo"/><rect x="168" y="104" width="8" height="8" fill="#f7a8c4" class="axo"/><rect x="176" y="104" width="8" height="8" fill="#f7a8c4" class="axo"/><rect x="184" y="104" width="8" height="8" fill="#f7a8c4" class="axo"/><rect x="192" y="104" width="8" height="8" fill="#f7a8c4" class="axo"/><rect x="200" y="104" width="8" height="8" fill="#f7a8c4" class="axo"/><rect x="208" y="104" width="8" height="8" fill="#f7a8c4" class="axo"/><rect x="216" y="104" width="8" height="8" fill="#ff9dbb" class="axo"/><rect x="224" y="104" width="8" height="8" fill="#ff9dbb" class="axo"/><rect x="232" y="104" width="8" height="8" fill="#f7a8c4" class="axo"/><rect x="240" y="104" width="8" height="8" fill="#e0457d" class="axo"/><rect x="88" y="112" width="8" height="8" fill="#e0457d" class="axo"/><rect x="96" y="112" width="8" height="8" fill="#f7a8c4" class="axo"/><rect x="104" y="112" width="8" height="8" fill="#f7a8c4" class="axo"/><rect x="112" y="112" width="8" height="8" fill="#f7a8c4" class="axo"/><rect x="120" y="112" width="8" height="8" fill="#f7a8c4" class="axo"/><rect x="128" y="112" width="8" height="8" fill="#f7a8c4" class="axo"/><rect x="136" y="112" width="8" height="8" fill="#e0457d" class="axo"/><rect x="144" y="112" width="8" height="8" fill="#e0457d" class="axo"/><rect x="152" y="112" width="8" height="8" fill="#f7a8c4" class="axo"/><rect x="160" y="112" width="8" height="8" fill="#f7a8c4" class="axo"/><rect x="168" y="112" width="8" height="8" fill="#f7a8c4" class="axo"/><rect x="176" y="112" width="8" height="8" fill="#f7a8c4" class="axo"/><rect x="184" y="112" width="8" height="8" fill="#e0457d" class="axo"/><rect x="192" y="112" width="8" height="8" fill="#e0457d" class="axo"/><rect x="200" y="112" width="8" height="8" fill="#f7a8c4" class="axo"/><rect x="208" y="112" width="8" height="8" fill="#f7a8c4" class="axo"/><rect x="216" y="112" width="8" height="8" fill="#f7a8c4" class="axo"/><rect x="224" y="112" width="8" height="8" fill="#f7a8c4" class="axo"/><rect x="232" y="112" width="8" height="8" fill="#f7a8c4" class="axo"/><rect x="240" y="112" width="8" height="8" fill="#e0457d" class="axo"/><rect x="88" y="120" width="8" height="8" fill="#e0457d" class="axo"/><rect x="96" y="120" width="8" height="8" fill="#e0457d" class="axo"/><rect x="104" y="120" width="8" height="8" fill="#e0457d" class="axo"/><rect x="112" y="120" width="8" height="8" fill="#f7a8c4" class="axo"/><rect x="120" y="120" width="8" height="8" fill="#f7a8c4" class="axo"/><rect x="128" y="120" width="8" height="8" fill="#f7a8c4" class="axo"/><rect x="136" y="120" width="8" height="8" fill="#f7a8c4" class="axo"/><rect x="144" y="120" width="8" height="8" fill="#f7a8c4" class="axo"/><rect x="152" y="120" width="8" height="8" fill="#e0457d" class="axo"/><rect x="160" y="120" width="8" height="8" fill="#e0457d" class="axo"/><rect x="168" y="120" width="8" height="8" fill="#e0457d" class="axo"/><rect x="176" y="120" width="8" height="8" fill="#e0457d" class="axo"/><rect x="184" y="120" width="8" height="8" fill="#f7a8c4" class="axo"/><rect x="192" y="120" width="8" height="8" fill="#f7a8c4" class="axo"/><rect x="200" y="120" width="8" height="8" fill="#f7a8c4" class="axo"/><rect x="208" y="120" width="8" height="8" fill="#f7a8c4" class="axo"/><rect x="216" y="120" width="8" height="8" fill="#f7a8c4" class="axo"/><rect x="224" y="120" width="8" height="8" fill="#e0457d" class="axo"/><rect x="232" y="120" width="8" height="8" fill="#e0457d" class="axo"/><rect x="240" y="120" width="8" height="8" fill="#e0457d" class="axo"/><rect x="88" y="128" width="8" height="8" fill="#e0457d" class="axo"/><rect x="96" y="128" width="8" height="8" fill="#e0457d" class="axo"/><rect x="104" y="128" width="8" height="8" fill="#e0457d" class="axo"/><rect x="112" y="128" width="8" height="8" fill="#f7a8c4" class="axo"/><rect x="120" y="128" width="8" height="8" fill="#f7a8c4" class="axo"/><rect x="128" y="128" width="8" height="8" fill="#f7a8c4" class="axo"/><rect x="136" y="128" width="8" height="8" fill="#f7a8c4" class="axo"/><rect x="144" y="128" width="8" height="8" fill="#e0457d" class="axo"/><rect x="152" y="128" width="8" height="8" fill="#e0457d" class="axo"/><rect x="160" y="128" width="8" height="8" fill="#e0457d" class="axo"/><rect x="168" y="128" width="8" height="8" fill="#e0457d" class="axo"/><rect x="176" y="128" width="8" height="8" fill="#e0457d" class="axo"/><rect x="184" y="128" width="8" height="8" fill="#e0457d" class="axo"/><rect x="192" y="128" width="8" height="8" fill="#f7a8c4" class="axo"/><rect x="200" y="128" width="8" height="8" fill="#f7a8c4" class="axo"/><rect x="208" y="128" width="8" height="8" fill="#f7a8c4" class="axo"/><rect x="216" y="128" width="8" height="8" fill="#f7a8c4" class="axo"/><rect x="224" y="128" width="8" height="8" fill="#e0457d" class="axo"/><rect x="232" y="128" width="8" height="8" fill="#e0457d" class="axo"/><rect x="240" y="128" width="8" height="8" fill="#e0457d" class="axo"/><rect x="120" y="136" width="8" height="8" fill="#e0457d" class="axo"/><rect x="128" y="136" width="8" height="8" fill="#e0457d" class="axo"/><rect x="136" y="136" width="8" height="8" fill="#ffd9e6" class="axo"/><rect x="144" y="136" width="8" height="8" fill="#ffd9e6" class="axo"/><rect x="152" y="136" width="8" height="8" fill="#ffd9e6" class="axo"/><rect x="160" y="136" width="8" height="8" fill="#ffd9e6" class="axo"/><rect x="168" y="136" width="8" height="8" fill="#ffd9e6" class="axo"/><rect x="176" y="136" width="8" height="8" fill="#ffd9e6" class="axo"/><rect x="184" y="136" width="8" height="8" fill="#ffd9e6" class="axo"/><rect x="192" y="136" width="8" height="8" fill="#ffd9e6" class="axo"/><rect x="200" y="136" width="8" height="8" fill="#e0457d" class="axo"/><rect x="208" y="136" width="8" height="8" fill="#e0457d" class="axo"/><rect x="104" y="144" width="8" height="8" fill="#e0457d" class="axo"/><rect x="112" y="144" width="8" height="8" fill="#e0457d" class="axo"/><rect x="120" y="144" width="8" height="8" fill="#e0457d" class="axo"/><rect x="128" y="144" width="8" height="8" fill="#e0457d" class="axo"/><rect x="136" y="144" width="8" height="8" fill="#ffd9e6" class="axo"/><rect x="144" y="144" width="8" height="8" fill="#ffd9e6" class="axo"/><rect x="152" y="144" width="8" height="8" fill="#ffd9e6" class="axo"/><rect x="160" y="144" width="8" height="8" fill="#ffd9e6" class="axo"/><rect x="168" y="144" width="8" height="8" fill="#ffd9e6" class="axo"/><rect x="176" y="144" width="8" height="8" fill="#ffd9e6" class="axo"/><rect x="184" y="144" width="8" height="8" fill="#ffd9e6" class="axo"/><rect x="192" y="144" width="8" height="8" fill="#ffd9e6" class="axo"/><rect x="200" y="144" width="8" height="8" fill="#e0457d" class="axo"/><rect x="208" y="144" width="8" height="8" fill="#e0457d" class="axo"/><rect x="216" y="144" width="8" height="8" fill="#e0457d" class="axo"/><rect x="224" y="144" width="8" height="8" fill="#e0457d" class="axo"/><rect x="120" y="152" width="8" height="8" fill="#e0457d" class="axo"/><rect x="128" y="152" width="8" height="8" fill="#e0457d" class="axo"/><rect x="136" y="152" width="8" height="8" fill="#e0457d" class="axo"/><rect x="144" y="152" width="8" height="8" fill="#ffd9e6" class="axo"/><rect x="152" y="152" width="8" height="8" fill="#ffd9e6" class="axo"/><rect x="160" y="152" width="8" height="8" fill="#ffd9e6" class="axo"/><rect x="168" y="152" width="8" height="8" fill="#ffd9e6" class="axo"/><rect x="176" y="152" width="8" height="8" fill="#ffd9e6" class="axo"/><rect x="184" y="152" width="8" height="8" fill="#ffd9e6" class="axo"/><rect x="192" y="152" width="8" height="8" fill="#e0457d" class="axo"/><rect x="200" y="152" width="8" height="8" fill="#e0457d" class="axo"/><rect x="208" y="152" width="8" height="8" fill="#e0457d" class="axo"/><rect x="136" y="160" width="8" height="8" fill="#e0457d" class="axo"/><rect x="144" y="160" width="8" height="8" fill="#e0457d" class="axo"/><rect x="152" y="160" width="8" height="8" fill="#ffd9e6" class="axo"/><rect x="160" y="160" width="8" height="8" fill="#ffd9e6" class="axo"/><rect x="168" y="160" width="8" height="8" fill="#ffd9e6" class="axo"/><rect x="176" y="160" width="8" height="8" fill="#ffd9e6" class="axo"/><rect x="184" y="160" width="8" height="8" fill="#e0457d" class="axo"/><rect x="192" y="160" width="8" height="8" fill="#e0457d" class="axo"/><rect x="120" y="168" width="8" height="8" fill="#e0457d" class="axo"/><rect x="128" y="168" width="8" height="8" fill="#e0457d" class="axo"/><rect x="136" y="168" width="8" height="8" fill="#e0457d" class="axo"/><rect x="192" y="168" width="8" height="8" fill="#e0457d" class="axo"/><rect x="200" y="168" width="8" height="8" fill="#e0457d" class="axo"/><rect x="208" y="168" width="8" height="8" fill="#e0457d" class="axo"/><rect x="136" y="176" width="8" height="8" fill="#e0457d" class="axo"/><rect x="144" y="176" width="8" height="8" fill="#e0457d" class="axo"/><rect x="184" y="176" width="8" height="8" fill="#e0457d" class="axo"/><rect x="192" y="176" width="8" height="8" fill="#e0457d" class="axo"/></g>
  <g class="eyes"><rect x="112" y="80" width="8" height="8" fill="#ffffff" class="eye"/><rect x="120" y="80" width="8" height="8" fill="#241d30" class="eye"/><rect x="208" y="80" width="8" height="8" fill="#241d30" class="eye"/><rect x="216" y="80" width="8" height="8" fill="#ffffff" class="eye"/><rect x="112" y="88" width="8" height="8" fill="#241d30" class="eye"/><rect x="120" y="88" width="8" height="8" fill="#241d30" class="eye"/><rect x="208" y="88" width="8" height="8" fill="#241d30" class="eye"/><rect x="216" y="88" width="8" height="8" fill="#241d30" class="eye"/></g>
</g>
</svg>
